<svg id="Layer_1" data-name="Layer 1" xmlns="http://www.w3.org/2000/svg" viewBox="0 0 49.7 49.7"><defs/><path class="cls-2" d="M35.35 16.45a1.09 1.09 0 00-1.5-.1c-1.8 1.2-10.6 7.2-11.5 8.2a3.54 3.54 0 005 5c.9-.9 7-9.8 8.2-11.5a1.34 1.34 0 00-.2-1.6zm-9.7 11.4a1.2 1.2 0 11-1.7-1.7c.4-.4 2.9-2.2 6-4.3-2.1 3.15-3.9 5.6-4.3 6z"/><path class="cls-2" d="M15.25 32.45l-1.5.7a12.2 12.2 0 01-1.6-6.2 13.3 13.3 0 01.8-4.5l1.7.8a.9.9 0 00.5.1 1.17 1.17 0 001.1-.7 1.2 1.2 0 00-.6-1.6l-1.6-.8a12.54 12.54 0 019.7-6v1.8a1.22 1.22 0 001.2 1.2 1.16 1.16 0 001.2-1.2v-1.8a10.82 10.82 0 014 1.1 1.21 1.21 0 101-2.2 14.68 14.68 0 00-6.2-1.3 15 15 0 00-12.4 23.4 1.23 1.23 0 001 .5.9.9 0 00.5-.1l2.4-1.2a1.17 1.17 0 00.5-1.6 1.53 1.53 0 00-1.7-.4zm23.3-11.7a1.21 1.21 0 10-2.2 1 13.1 13.1 0 011.1 5.2 13.3 13.3 0 01-1.6 6.2l-1.5-.7a1.21 1.21 0 00-1 2.2l2.5 1.2a.9.9 0 00.5.1 1.23 1.23 0 001-.5 14.88 14.88 0 002.6-8.4 15.23 15.23 0 00-1.4-6.3z"/></svg>