<?xml version="1.0" encoding="utf-8"?>
<!-- Generator: Adobe Illustrator 25.2.0, SVG Export Plug-In . SVG Version: 6.00 Build 0)  -->
<svg version="1.1" baseProfile="tiny" id="Layer_1" xmlns="http://www.w3.org/2000/svg" xmlns:xlink="http://www.w3.org/1999/xlink"
	 x="0px" y="0px" viewBox="0 0 50 50" overflow="visible" xml:space="preserve">

<g id="Page-1">
	<g id="_x30_07---Dump-Truck">
		<path id="Shape" d="M37.1,18c-0.3-0.5-0.9-0.9-1.5-0.9h-5c-0.9,0-1.7,0.8-1.7,1.7v8.5h-1.1V16h3.9c0.6,0,1.1-0.5,1.1-1.1v-1.1
			c0-0.6-0.5-1.1-1.1-1.1h-4.5c-1.6,0-2.8,1.3-2.8,2.8v2.7c-0.5-0.8-1.3-1.3-2.1-1.5c-0.6-0.9-1.6-1.4-2.6-1.4
			c-0.3-0.4-1.2-0.9-2.8-0.9c-1.6,0-2.3,0.6-2.6,0.9c-1,0-2,0.6-2.5,1.4c-1.3,0.3-2.3,1.4-2.5,2.7H9.2c-0.6,0-1.1,0.5-1.1,1.1v6.8
			c0,0.6,0.5,1.1,1.1,1.1h0.6v1.1c0,0.5,0.3,0.9,0.7,1c-1.1,1-1.6,2.7-1.1,4.1c0.5,1.5,1.8,2.5,3.3,2.7c1.5,0.2,3-0.6,3.8-1.9
			c0.7,1.2,2,1.9,3.3,1.9c1.4,0,2.7-0.7,3.4-1.9c0.2,0.1,0.4,0.2,0.6,0.2h4.7c0.8,1.2,2.2,1.8,3.6,1.7c1.4-0.1,2.6-1,3.2-2.2h4.9
			c0.9,0,1.7-0.8,1.7-1.7v-5.9c0-0.7-0.2-1.3-0.5-1.9L37.1,18z M36.1,18.5l4,7h-5.5c-0.3,0-0.6-0.3-0.6-0.6v-6.8h1.6
			C35.8,18.2,36,18.3,36.1,18.5L36.1,18.5z M12.2,17.7c0.2,0,0.4-0.2,0.4-0.4c0-0.1,0.4-1,1.8-1c0.2,0,0.4-0.1,0.5-0.3
			c0,0,0.4-0.6,1.9-0.6c1.6,0,2,0.6,2,0.6c0.1,0.2,0.3,0.3,0.5,0.3c1.6,0,2,1,2,1c0.1,0.2,0.2,0.3,0.4,0.4c0.9,0.1,1.7,0.8,2,1.6
			H10.4C10.6,18.5,11.4,17.8,12.2,17.7L12.2,17.7z M9.2,22.7h13.5c0.3,0,0.6-0.3,0.6-0.6c0-0.3-0.3-0.6-0.6-0.6H9.2v-1.1H25
			c0.3,0,0.6-0.3,0.6-0.6v-4.5c0-0.9,0.8-1.7,1.7-1.7h4.5v1.1h-3.9c-0.6,0-1.1,0.5-1.1,1.1v11.3H9.2V22.7z M10.9,29.5v-1.1h11.8v2.3
			c-0.7-0.8-1.8-1.2-2.8-1.2H10.9z M17.2,30.6c-0.2,0.2-0.5,0.5-0.6,0.8c-0.2-0.3-0.4-0.6-0.6-0.8L17.2,30.6z M13.2,36.3
			c-1.6,0-2.8-1.3-2.8-2.8s1.3-2.8,2.8-2.8s2.8,1.3,2.8,2.8C16,35,14.7,36.3,13.2,36.3z M19.9,36.3c-1.6,0-2.8-1.3-2.8-2.8
			s1.3-2.8,2.8-2.8s2.8,1.3,2.8,2.8C22.7,35,21.5,36.3,19.9,36.3z M23.9,34.6v-6.2h5.1v2.3c-1,1-1.4,2.5-1,3.9H23.9z M31.8,36.3
			c-1.6,0-2.8-1.3-2.8-2.8s1.3-2.8,2.8-2.8c1.6,0,2.8,1.3,2.8,2.8C34.6,35,33.3,36.3,31.8,36.3z M40.2,34h-4.6
			c0.2-1.1-0.2-2.3-0.9-3.2s-1.8-1.4-3-1.4c-0.6,0-1.2,0.1-1.7,0.4V18.8c0-0.3,0.3-0.6,0.6-0.6h2.3V25c0,0.9,0.8,1.7,1.7,1.7h6.1
			c0.1,0.3,0.1,0.6,0.1,0.9v0.2h-0.6c-0.3,0-0.6,0.3-0.6,0.6s0.3,0.6,0.6,0.6h0.6v1.1h-0.6c-0.3,0-0.6,0.3-0.6,0.6s0.3,0.6,0.6,0.6
			h0.6v2.3C40.8,33.8,40.5,34,40.2,34z"/>
		<path id="Shape_1_" d="M31.8,31.8c-0.9,0-1.7,0.8-1.7,1.7s0.8,1.7,1.7,1.7s1.7-0.8,1.7-1.7S32.7,31.8,31.8,31.8z M31.8,34
			c-0.3,0-0.6-0.3-0.6-0.6s0.3-0.6,0.6-0.6s0.6,0.3,0.6,0.6S32.1,34,31.8,34z"/>
		<path id="Shape_2_" d="M19.9,31.8c-0.9,0-1.7,0.8-1.7,1.7s0.8,1.7,1.7,1.7s1.7-0.8,1.7-1.7S20.9,31.8,19.9,31.8z M19.9,34
			c-0.3,0-0.6-0.3-0.6-0.6s0.3-0.6,0.6-0.6s0.6,0.3,0.6,0.6S20.2,34,19.9,34z"/>
		<path id="Shape_3_" d="M13.2,31.8c-0.9,0-1.7,0.8-1.7,1.7s0.8,1.7,1.7,1.7s1.7-0.8,1.7-1.7S14.1,31.8,13.2,31.8z M13.2,34
			c-0.3,0-0.6-0.3-0.6-0.6s0.3-0.6,0.6-0.6s0.6,0.3,0.6,0.6S13.5,34,13.2,34z"/>
	</g>
</g>
</svg>
