<svg id="Layer_1" data-name="Layer 1" xmlns="http://www.w3.org/2000/svg" viewBox="0 0 49.7 49.7"><defs/><circle class="cls-2" cx="31.9" cy="35.6" r="1.1"/><circle class="cls-2" cx="18.5" cy="35.3" r="1.1"/><path class="cls-2" d="M21.7 14.6l2-2.5 1.8 1.8.1.6-.1 2.2a22.67 22.67 0 00-4.5-2.4l-.4-.2-3.5 2.8-1.5-1.1-4.3 2.7 2.9 1.9-2.2 1.8a2 2 0 00-1.6 1.9v.4a1.86 1.86 0 001.6 1.9v6.7a3.08 3.08 0 002.9 3.1 3.71 3.71 0 007.2 0h6.1a3.77 3.77 0 003.7 3.1 3.69 3.69 0 003.7-3.3 3.14 3.14 0 002-2.9v-6.7a1.94 1.94 0 001.7-1.9v-.4a1.86 1.86 0 00-1.9-2h-1.1l2.9-3.1-1.7-2.8-4-1.3-2 2.6-2.5-1.8-2 .8.1-2.2 1.7-.4 3.9 2.1 1.1-1.1-4.5-2.7-2.7.6-3.3-2.4-2.8 3.7m12.2 4.4l1.4-1.8 2.5.8.8 1.3-3.1 3.3h-1.4l-.2-3.6zm-5.8 1.6l-.2-.5a11 11 0 01-.3-1.1l2.4-1 2.3 1.7v3h-6.5zm-11.4-2.4l6.7 4.3 1.3-1.1-5.2-3.1 2.3-2a23 23 0 014.1 2.2c.1.5.3 1 .4 1.5L22.2 22h-7.6l2.3-1.9-2.6-1.7zm3 19.8a2.2 2.2 0 112.2-2.2 2.22 2.22 0 01-2.2 2.2zm13.4.3a2.2 2.2 0 112.2-2.2 2.22 2.22 0 01-2.2 2.2zm5.9-13.3a.43.43 0 01-.4.4h-9.8v1.6h8.5v6.7a1.74 1.74 0 01-.6 1.2 3.79 3.79 0 00-3.6-2.5 3.66 3.66 0 00-3.6 2.8h-6.1a3.68 3.68 0 00-3.7-3.1 3.75 3.75 0 00-3.7 3.1 1.59 1.59 0 01-1.2-1.5v-6.7h8.3v-1.6h-9.6a.43.43 0 01-.4-.4v-.4a.43.43 0 01.4-.4h25.1a.43.43 0 01.4.4z"/></svg>