<?xml version="1.0" encoding="utf-8"?>
<!-- Generator: Adobe Illustrator 25.2.0, SVG Export Plug-In . SVG Version: 6.00 Build 0)  -->
<svg version="1.1" id="Layer_1" xmlns="http://www.w3.org/2000/svg" xmlns:xlink="http://www.w3.org/1999/xlink" x="0px" y="0px"
	 viewBox="0 0 50 50" style="enable-background:new 0 0 50 50;" xml:space="preserve">


<g>
	<path fill="#3B3B3C" d="M18.9,23.1l0.2,0l0,0L18.9,23.1c-0.1,1.4,0.7,2.6,1.9,3.2c0.4,0.2,0.6,0.5,0.8,0.8c0.6,1.2,1.9,1.9,3.3,1.8
		c0.4,0,0.8,0.1,1.2,0.3c0.6,0.4,1.2,0.5,1.9,0.5c0.7,0,1.3-0.2,1.9-0.5c0.3-0.2,0.8-0.3,1.2-0.3c1.4,0.1,2.6-0.6,3.3-1.8
		c0.2-0.3,0.5-0.6,0.8-0.8c1.2-0.6,2-1.8,1.9-3.2c0-0.4,0.1-0.8,0.3-1.1c0.8-1.1,0.8-2.6,0-3.7c-0.2-0.3-0.3-0.7-0.3-1.1
		c0.1-1.3-0.7-2.6-1.9-3.2c-0.4-0.2-0.6-0.4-0.8-0.8c-0.6-1.2-1.9-1.9-3.3-1.8c-0.4,0-0.8-0.1-1.2-0.3c-1.1-0.7-2.6-0.7-3.8,0
		c-0.3,0.2-0.7,0.3-1.2,0.3c-1.4-0.1-2.6,0.6-3.3,1.8c-0.2,0.3-0.5,0.6-0.8,0.8c-1.2,0.6-2,1.8-1.9,3.2c0,0.4-0.1,0.8-0.3,1.1
		c-0.8,1.1-0.8,2.6,0,3.7C18.8,22.3,18.9,22.7,18.9,23.1z M31.1,13c0.8,0,1.5,0.3,1.8,1c0.3,0.6,0.9,1.2,1.5,1.5
		c0.7,0.3,1.1,1,1,1.7c0,0.7,0.2,1.4,0.6,2c0.4,0.6,0.4,1.4,0,1.9c-0.4,0.6-0.6,1.3-0.6,2.1c0,0.7-0.4,1.4-1,1.7
		c-0.7,0.3-1.2,0.8-1.5,1.5c-0.3,0.6-1,1-1.8,1c-0.7,0-1.5,0.1-2.1,0.5c-0.6,0.4-1.5,0.4-2.1,0c-0.6-0.4-1.2-0.5-1.9-0.5
		c-0.1,0-0.1,0-0.2,0c-0.7,0-1.4-0.3-1.8-1c-0.3-0.6-0.9-1.2-1.5-1.5c-0.7-0.3-1.1-1-1-1.7c0-0.7-0.2-1.4-0.6-2
		c-0.4-0.6-0.4-1.4,0-1.9c0.4-0.6,0.6-1.3,0.6-2.1c0-0.7,0.4-1.4,1-1.7c0.7-0.3,1.2-0.8,1.5-1.5c0.3-0.6,1-1,1.8-1
		c0.7,0,1.5-0.1,2.1-0.5c0.6-0.4,1.5-0.4,2.1,0C29.7,12.8,30.4,13,31.1,13z"/>
	<path fill="#3B3B3C" d="M24.4,25.9c0.1,0.1,0.3,0.1,0.4,0.1c0.1,0,0.1,0,0.2,0c0.2,0,0.4-0.2,0.5-0.3l6.3-10.1c0.2-0.2,0.2-0.5,0-0.8
		c-0.1-0.2-0.4-0.4-0.7-0.4c-0.3,0-0.5,0.1-0.7,0.4l-6.3,10.1C24,25.2,24.1,25.6,24.4,25.9z"/>
	<path fill="#3B3B3C" d="M27.7,17.5c0-1.6-1.2-2.9-2.6-2.9s-2.6,1.3-2.6,2.9s1.2,2.9,2.6,2.9S27.7,19.1,27.7,17.5z M24.1,17.5
		c0-0.8,0.5-1.4,1-1.4c0.6,0,1,0.6,1,1.4c0,0.8-0.5,1.4-1,1.4C24.6,18.9,24.1,18.3,24.1,17.5z"/>
	<path fill="#3B3B3C" d="M28.3,22.8c0,1.6,1.2,2.9,2.6,2.9c1.4,0,2.6-1.3,2.6-2.9s-1.2-2.9-2.6-2.9C29.4,19.9,28.3,21.2,28.3,22.8z
		 M31.9,22.8c0,0.8-0.5,1.4-1,1.4s-1-0.6-1-1.4s0.5-1.4,1-1.4S31.9,22.1,31.9,22.8z"/>
	<path fill="#3B3B3C" d="M39.4,31.5c-0.8-1.4-2.5-1.9-3.9-1.2l-4,1.9c-0.6-1-1.8-1.7-3-1.7l-3.8-0.1c-0.6,0-1.1-0.2-1.6-0.4l-0.4-0.2
		c-2-1-4.3-1.1-6.3-0.2l0-0.5c0-0.4-0.3-0.8-0.8-0.8l-4.2-0.1c-0.4,0-0.8,0.3-0.8,0.8l-0.3,9.3c0,0.4,0.3,0.8,0.8,0.8l4.2,0.1
		c0.4,0,0.8-0.3,0.8-0.8l0-0.3l1-0.5c0.4-0.2,0.8-0.2,1.2-0.1l6.6,1.9c0.5,0.1,1,0.2,1.5,0.2c1.1,0,2.1-0.2,3.1-0.7
		c0,0,0.1,0,0.1-0.1l9.5-6.1C39.5,32.4,39.6,31.9,39.4,31.5z M25.1,33.3C25.1,33.3,25.1,33.3,25.1,33.3c-0.4,0-0.8,0.3-0.8,0.8
		c0,0.2,0.1,0.4,0.2,0.6c0.1,0.2,0.3,0.2,0.5,0.2l6.4,0.2c0.4,0,0.8-0.3,0.8-0.8c0-0.2,0-0.4,0-0.6l4.1-2c0.4-0.2,0.9-0.2,1.3,0
		l-8.7,5.6c-1.1,0.5-2.3,0.6-3.5,0.4l-6.5-1.8c-0.3-0.1-0.6-0.1-0.9-0.1c-0.5,0-1,0.1-1.5,0.4l-0.2,0.1l0.1-4.9
		c1.7-1.1,3.8-1.2,5.6-0.2l0.4,0.2c0.7,0.4,1.5,0.6,2.3,0.6l3.8,0.1c0.9,0,1.6,0.6,1.9,1.4L25.1,33.3z M14.9,29.9l-0.2,7.7L12,37.5
		l0.2-7.7L14.9,29.9z"/>
</g>
</svg>
