<?xml version="1.0" encoding="utf-8"?>
<!-- Generator: Adobe Illustrator 16.0.0, SVG Export Plug-In . SVG Version: 6.00 Build 0)  -->
<!DOCTYPE svg PUBLIC "-//W3C//DTD SVG 1.1//EN" "http://www.w3.org/Graphics/SVG/1.1/DTD/svg11.dtd">
<svg version="1.1" id="Layer_1" xmlns="http://www.w3.org/2000/svg" xmlns:xlink="http://www.w3.org/1999/xlink" x="0px" y="0px"
	 width="100px" height="100px" viewBox="0 0 100 100" enable-background="new 0 0 100 100" xml:space="preserve">
<path fill="#929AAC" d="M78.489,33.52H64.302c2.302-2.885,3.688-6.531,3.688-10.5c0-9.305-7.57-16.875-16.875-16.875
	s-16.875,7.57-16.875,16.875c0,3.969,1.387,7.615,3.688,10.5H24.239L8.489,94.77h84L78.489,33.52z M51.114,14.145
	c4.894,0,8.875,3.981,8.875,8.875s-3.981,8.875-8.875,8.875s-8.875-3.981-8.875-8.875S46.221,14.145,51.114,14.145z M44.38,79.557
	l-6.428-11.336l-2.26,2.766v8.57H29.81V53.301h5.883v11.608h0.117c0.584-1.013,1.207-1.947,1.791-2.883l5.961-8.726h7.284
	l-8.687,11.18l9.154,15.076H44.38z M74.377,78.349c-1.831,0.624-5.298,1.48-8.765,1.48c-4.792,0-8.259-1.207-10.674-3.545
	c-2.415-2.259-3.74-5.688-3.701-9.544c0.039-8.727,6.389-13.712,14.998-13.712c3.39,0,5.999,0.662,7.285,1.285l-1.247,4.753
	c-1.441-0.624-3.233-1.13-6.116-1.13c-4.947,0-8.687,2.805-8.687,8.492c0,5.415,3.389,8.609,8.258,8.609
	c1.364,0,2.455-0.156,2.922-0.39v-5.493H64.6V64.52h9.777V78.349z"/>
</svg>
