<?xml version="1.0" encoding="utf-8"?>
<!-- Generator: Adobe Illustrator 16.0.0, SVG Export Plug-In . SVG Version: 6.00 Build 0)  -->
<!DOCTYPE svg PUBLIC "-//W3C//DTD SVG 1.1//EN" "http://www.w3.org/Graphics/SVG/1.1/DTD/svg11.dtd">
<svg version="1.1" id="Capa_1" xmlns="http://www.w3.org/2000/svg" xmlns:xlink="http://www.w3.org/1999/xlink" x="0px" y="0px"
	 width="263.5px" height="200px" viewBox="0 0 263.5 200" enable-background="new 0 0 263.5 200" xml:space="preserve">
<g>
	<g>
		<path d="M247.979,85.962c-0.818-0.133-1.646-0.194-2.475-0.184H44.408l3.077-1.431c3.007-1.424,5.743-3.361,8.085-5.724
			l39.567-39.567c5.211-4.975,6.086-12.977,2.075-18.96c-4.669-6.376-13.623-7.761-20-3.092c-0.515,0.377-1.005,0.789-1.465,1.231
			L4.197,89.785c-5.591,5.585-5.597,14.646-0.011,20.237c0.004,0.003,0.008,0.008,0.011,0.011l71.549,71.55
			c5.596,5.581,14.657,5.567,20.237-0.028c0.439-0.44,0.85-0.908,1.228-1.402c4.012-5.984,3.136-13.986-2.075-18.961l-39.495-39.639
			c-2.1-2.102-4.514-3.863-7.155-5.223l-4.293-1.932h200.524c7.31,0.271,13.723-4.835,15.096-12.021
			C261.078,94.577,255.779,87.228,247.979,85.962z"/>
	</g>
</g>
</svg>
