<?xml version="1.0" encoding="utf-8"?>
<!-- Generator: Adobe Illustrator 25.2.0, SVG Export Plug-In . SVG Version: 6.00 Build 0)  -->
<svg version="1.1" baseProfile="tiny" id="Layer_1" xmlns="http://www.w3.org/2000/svg" xmlns:xlink="http://www.w3.org/1999/xlink"
	 x="0px" y="0px" viewBox="0 0 100 100" overflow="visible" xml:space="preserve">

<path fill="#FF2928" d="M87.3,15.7H63.9v-3.8c0-3.7-3-6.8-6.8-6.8H42.6c-3.7,0-6.8,3-6.8,6.8v3.8H12.4c-1.2,0-2.1,0.9-2.1,2.1
	c0,1.2,0.9,2.1,2.1,2.1h3.9l6,67.4c0.1,4.3,3.6,7.8,7.9,7.8h39.2c4.3,0,7.9-3.5,7.9-7.8l6.3-67.4h3.6c1.2,0,2.1-0.9,2.1-2.1
	C89.4,16.6,88.4,15.7,87.3,15.7z M40,11.9c0-1.4,1.2-2.6,2.6-2.6h14.5c1.4,0,2.6,1.2,2.6,2.6v3.8H40V11.9z M73.2,86.9l0,0.2
	c0,2.1-1.7,3.7-3.7,3.7H30.3c-2.1,0-3.7-1.7-3.7-3.7l-6-67.3h58.9L73.2,86.9z"/>
<path fill="#FF2928" d="M41.2,83.4c-1.2,0-2.1-0.9-2.1-2.1v-52c0-1.2,0.9-2.1,2.1-2.1c1.2,0,2.1,0.9,2.1,2.1v52
	C43.3,82.5,42.4,83.4,41.2,83.4z"/>
<path fill="#FF2928" d="M58.8,83.4c-1.2,0-2.1-0.9-2.1-2.1v-52c0-1.2,0.9-2.1,2.1-2.1s2.1,0.9,2.1,2.1v52
	C60.9,82.5,60,83.4,58.8,83.4z"/>
</svg>
