<?xml version="1.0" encoding="utf-8"?>
<!-- Generator: Adobe Illustrator 16.0.0, SVG Export Plug-In . SVG Version: 6.00 Build 0)  -->
<!DOCTYPE svg PUBLIC "-//W3C//DTD SVG 1.1//EN" "http://www.w3.org/Graphics/SVG/1.1/DTD/svg11.dtd">
<svg version="1.1" id="Layer_1" xmlns="http://www.w3.org/2000/svg" xmlns:xlink="http://www.w3.org/1999/xlink" x="0px" y="0px"
	 width="100px" height="100px" viewBox="0 0 100 100" enable-background="new 0 0 100 100" xml:space="preserve">
<g>
	<path fill="#9B9A9A" d="M31.021,48.798c0-6.174-4.413-11.335-10.25-12.5V15.697c0-1.381-1.119-2.5-2.5-2.5s-2.5,1.119-2.5,2.5
		v20.601c-5.837,1.166-10.25,6.326-10.25,12.5c0,6.216,4.474,11.398,10.368,12.519c-0.039-0.007-0.079-0.01-0.118-0.018v24.398
		c0,1.381,1.119,2.5,2.5,2.5s2.5-1.119,2.5-2.5V61.299c-0.039,0.008-0.079,0.011-0.118,0.018
		C26.547,60.196,31.021,55.014,31.021,48.798z M18.271,56.548c-4.273,0-7.75-3.477-7.75-7.75s3.477-7.75,7.75-7.75
		s7.75,3.477,7.75,7.75S22.544,56.548,18.271,56.548z"/>
	<path fill="#9B9A9A" d="M62.75,24.553c0-7.03-5.721-12.75-12.75-12.75c-7.03,0-12.75,5.72-12.75,12.75
		c0,6.174,4.413,11.335,10.25,12.5v48.644c0,1.381,1.119,2.5,2.5,2.5c1.381,0,2.5-1.119,2.5-2.5V37.053
		C58.336,35.888,62.75,30.727,62.75,24.553z M50,32.303c-4.273,0-7.75-3.477-7.75-7.75s3.477-7.75,7.75-7.75
		c4.274,0,7.75,3.477,7.75,7.75S54.273,32.303,50,32.303z"/>
	<path fill="#9B9A9A" d="M94.479,60.947c0-6.175-4.412-11.335-10.25-12.501v-32.75c0-1.381-1.119-2.5-2.5-2.5s-2.5,1.119-2.5,2.5
		v32.75c-5.836,1.166-10.25,6.326-10.25,12.501c0,6.216,4.475,11.398,10.369,12.519c-0.039-0.007-0.08-0.01-0.119-0.018v12.249
		c0,1.381,1.119,2.5,2.5,2.5s2.5-1.119,2.5-2.5V73.448c-0.039,0.008-0.078,0.011-0.117,0.018
		C90.006,72.346,94.479,67.163,94.479,60.947z M81.729,68.697c-4.273,0-7.75-3.477-7.75-7.75s3.477-7.75,7.75-7.75
		s7.75,3.477,7.75,7.75S86.002,68.697,81.729,68.697z"/>
</g>
</svg>
